PathFileType	4	(X/Y/Z)	C:/Users/beibeiliu/ov580/test_trc/capture2\sequence.18_training_dense_right.trc
DataRate	CameraRate	NumFrames	NumMarkers	Units	OrigDataRate	OrigDataStartFrame	OrigNumFrames
120	120	18	19	mm	120	249	398
Frame#	Time	ThumbCMC			ThumbMCP			ThumbIP			ThumbTip			IndexMCP			IndexPIP			IndexTip			MiddleMCP			MiddlePIP			MiddleTip			RingMCP			RingPIP			RingTip			PinkyMCP			PinkyPIP			PinkyTip			BackHand1			BackHand2			BackHand3	
		X0	Y0	Z0	X1	Y1	Z1	X2	Y2	Z2	X3	Y3	Z3	X4	Y4	Z4	X5	Y5	Z5	X6	Y6	Z6	X7	Y7	Z7	X8	Y8	Z8	X9	Y9	Z9	X10	Y10	Z10	X11	Y11	Z11	X12	Y12	Z12	X13	Y13	Z13	X14	Y14	Z14	X15	Y15	Z15	X16	Y16	Z16	X17	Y17	Z17	X18	Y18	Z18	
248	2.06667	148.8	108.863	21.1455	142.79	113.577	-7.76787	152.562	117.887	-36.563	173.303	105.205	-52.6396	179.518	123.333	-46.0042	168.515	104.5	-66.2817	151.695	83.0917	-46.7494	190.553	98.3927	-49.8699	166.928	79.3459	-53.6087	157.166	76.8277	-19.2123	194.862	82.7204	-40.771	171.546	65.6822	-38.897	166.875	72.9	-3.4554	203.828	67.7605	-31.6187	177.586	56.7528	-24.8144	173.788	67.2853	8.24273	213.151	96.9172	12.3118	205.681	89.8125	42.7426	185.672	115.425	22.778	
249	2.075	140.434	100.937	21.1004	132.738	102.725	-11.8726	136.506	104.584	-36.5373	158.2	96.025	-56.8312	166.342	112.972	-52.025	154.396	91.4561	-68.6754	145.153	70.0459	-45.4018	179.48	91.104	-52.7348	160.397	67.5865	-53.3991	154.415	68.2203	-14.1957	185.54	75.5597	-43.956	167.083	55.1668	-32.9195	163.785	68.1872	-1.30657	195.481	67.3756	-31.3173	177.561	48.1769	-19.2832	172.365	68.0304	8.91765	201.436	103.045	7.41947	195.287	96.6925	40.7255	176.003	115.426	20.7422	
250	2.08333	131.925	96.55	15.1947	121.091	90.7081	-10.2208	121.101	94.1899	-39.0106	136.405	90.744	-59.9113	155.535	102.298	-55.5122	151.944	77.0527	-66.6145	138.581	61.6577	-40.188	171.578	85.6497	-50.2095	158.716	55.7246	-48.0848	151.908	62.5244	-12.1888	185.816	71.7721	-40.0431	167.984	47.8406	-30.0567	162.615	65.1033	1.80143	194.473	63.4893	-29.7626	174.279	45.8724	-14.7877	170.888	65.2704	10.5318	193.691	104.201	6.52068	187.561	100.502	34.9959	162.721	115.062	13.5261	
251	2.09167	125.3	91.8333	15.4814	120.075	82.819	-9.08928	117.417	84.0663	-36.0259	124.471	85.5819	-63.2872	147.881	94.9039	-52.5964	140.598	64.204	-62.9044	136.556	56.7879	-27.964	164.543	80.8461	-51.0048	154.967	49.2346	-44.6602	147.125	57.1899	-10.8354	179.098	67.9749	-41.2689	167.27	42.5826	-27.0544	159.748	62.6094	1.20154	193.343	60.315	-29.9717	173.466	44.5594	-13.1882	166.373	64.4543	11.7962	188.29	105.162	0.935075	185.657	100.631	32.618	156.671	111.865	11.1275	
252	2.1	122.956	85.619	14.8939	115.993	77.9187	-12.9454	114.127	76.1032	-38.2765	119.276	74.2058	-58.9933	148.048	84.4912	-53.4976	140.453	52.8663	-57.5072	133.598	50.8086	-23.0342	162.922	72.3761	-50.735	156.777	42.2886	-43.8816	146.842	55.4263	-7.49935	177.17	62.9088	-40.0228	166.051	38.0209	-24.7878	158.14	59.1828	3.25499	187.805	59.5286	-29.2477	174.923	39.7645	-10.6272	168.287	61.0205	14.0586	186.997	102.607	0.89062	182.64	101.464	32.5592	154.426	109.116	10.6418	
253	2.10833	121.139	82.082	12.8227	114.979	69.3714	-7.81247	110.941	67.1508	-40.1473	112.495	64.4693	-61.2319	140.513	74.8097	-54.2612	136.889	43.1	-54.5778	133.129	41.376	-22.3531	158.696	65.0718	-49.8917	154.266	33.7021	-37.7074	144.674	48.339	-4.75725	177.01	54.9824	-39.4323	164.82	34.2217	-23.1103	156.239	54.8583	4.08249	190.017	53.2977	-26.8302	174.38	35.8794	-10.5041	166.227	57.778	14.8013	183.212	97.3807	-2.30259	175.972	102.927	29.6835	151.101	106.11	9.27203	
254	2.11667	120.95	74.3893	16.7095	114.489	60.0102	-7.57573	111.508	55.4977	-34.3516	116.435	50.8334	-57.8726	141.041	60.3205	-54.4533	139.216	32.8109	-50.1596	131.436	36.5565	-14.4492	157.213	55.8124	-48.1822	152.686	25.3659	-34.666	145.646	43.4558	-1.50822	174.563	47.2961	-37.5065	162.65	26.5586	-17.7052	155.675	51.5002	6.0349	190.226	45.7964	-25.8304	169.945	32.6607	-5.90396	164.84	54.7978	12.5558	181.72	94.1549	-1.32675	172.341	99.7741	25.2689	144.96	100.003	8.20569	
255	2.125	117.477	68.9878	19.2844	111.607	53.2697	-7.78615	106.888	44.6922	-33.3991	110.968	38.7275	-57.0694	137.273	54.6208	-50.2045	136.135	22.1841	-45.8923	132.756	29.7086	-10.4678	156.738	45.6232	-46.8535	153.919	18.3675	-31.0362	146.772	34.0039	-0.459608	173.882	43.5903	-34.6801	163.362	21.2423	-11.4036	155.655	44.813	7.37646	189.651	41.2763	-24.2845	173.567	26.9693	-2.31859	163.83	49.9262	14.4133	177.436	88.5503	-5.61564	170.937	97.4626	27.8744	140.987	93.4217	5.50353	
256	2.13333	119.253	65.8284	16.5674	112.154	47.2324	-3.71046	108.738	38.3644	-29.1531	112.2	31.1572	-48.4054	137.578	44.9125	-48.7112	134.918	15.5281	-43.766	133.68	22.6073	-9.11888	158.045	41.1103	-43.7298	154.384	12.1175	-26.9875	144.403	31.6975	3.65652	168.594	33.3462	-33.9815	166.149	16.1181	-9.72275	155.483	40.3919	10.7298	186.289	33.5301	-22.7302	170.85	23.4425	-0.151233	164.38	44.9351	17.5596	173.5	85.3194	-5.66738	169.775	95.1873	23.3183	143.946	92.0447	7.42416	
257	2.14167	115.738	62.9913	22.0894	112.126	43.4638	1.53517	105.16	31.3923	-22.2351	110.073	23.5353	-45.3316	131.705	37.0643	-46.1817	135.346	8.83589	-34.4315	132.831	19.1983	-5.10018	151.407	32.0043	-42.3986	149.94	6.45222	-23.951	145.164	28.0655	7.10948	167.36	27.8118	-31.0464	161.816	11.1819	-5.15433	153.832	36.675	13.0407	184.696	29.122	-19.2797	172.763	17.0192	2.6668	164.3	45.0781	20.1113	175.165	78.0855	-7.4678	171.873	91.3449	22.6542	142.705	86.6349	7.75681	
258	2.15	117.776	60.3444	25.0851	105.879	39.8818	2.66245	103.575	27.4034	-19.0915	106.013	15.9297	-41.6336	132.753	32.7557	-42.304	131.695	2.49362	-29.0747	132.93	14.4433	-1.45661	153.312	24.8647	-36.9586	144.642	0.0588392	-14.9627	143.522	25.5681	11.3721	169.216	17.5311	-25.8	158.41	5.45999	0.766103	154.881	36.5561	16.4641	182.335	25.5931	-15.7881	171.538	12.1234	10.6094	162.149	41.1929	21.6689	174.231	74.5742	-5.78218	175.764	85.138	22.9163	141.576	83.5077	5.86894	
259	2.15833	116.959	60.2781	25.825	108.679	38.4146	7.11596	102.947	25.0445	-14.3881	102.331	12.2825	-33.2396	126.722	24.6178	-38.8386	124.698	-1.63597	-24.4055	125.46	13.4829	6.09373	149.832	14.7472	-32.2583	139.628	-3.87776	-10.2435	143.446	19.4354	16.6932	162.702	15.0696	-22.4334	156.674	0.492228	3.21814	150.565	29.7277	19.8589	180.224	13.4086	-11.4673	165.455	8.90143	16.1548	160.777	36.2558	26.8926	177.11	66.745	-6.67918	177.203	81.1285	26.3608	140.768	79.7144	9.19132	
260	2.16667	115.265	59.4231	30.9921	105.18	38.545	16.0987	95.4417	23.484	-7.60793	93.2159	9.38496	-27.8412	125.589	18.5524	-33.4091	121.697	-6.39598	-20.1491	121.027	9.85744	11.1129	143.678	13.3561	-26.833	135.403	-9.82987	-4.36958	136.29	17.3364	21.6583	156.659	6.87099	-15.7757	147.193	-3.15438	11.5544	147.805	28.4761	25.0856	173.931	5.57202	-5.54624	161.584	3.04153	20.6431	159.284	33.0595	30.2628	175.271	59.7201	-0.601289	175.139	76.436	26.2954	144.087	74.5147	6.80578	
261	2.175	117.244	60.3195	35.9395	102.106	38.0343	18.3734	93.7154	22.8057	-3.9915	94.3413	8.7172	-22.1125	118.796	19.0633	-27.8883	108.699	-7.74071	-18.1919	113.395	3.49023	15.0944	133.557	6.91912	-22.2809	128.807	-11.7105	2.8655	129.135	18.777	26.3364	149.826	0.282223	-9.89533	142.457	-7.4566	17.178	141.907	27.6626	28.6501	167.846	5.0576	-1.19893	154.033	0.377619	27.1217	150.818	33.8525	30.9067	171.802	53.8857	-0.602088	172.083	72.4032	26.9604	141.879	72.0936	12.5832	
262	2.18333	114.187	61.4739	37.1539	97.7113	41.821	28.0898	84.5059	28.1009	6.00178	88.4441	10.3527	-14.1479	110.571	17.8052	-24.6843	103.703	-7.29966	-14.127	103.865	-0.170203	19.2073	127.507	4.19084	-16.1016	117.299	-12.2422	10.1543	123.564	16.1542	29.8197	141.443	-0.715086	-5.31231	129.786	-5.82767	23.5687	138.568	26.3755	33.5076	156.969	-1.58201	5.08915	143.757	-1.35947	31.0259	147.108	28.9117	37.5052	170.531	48.475	4.56115	175.106	68.1807	26.6327	141.689	69.7049	11.773	
263	2.19167	111.751	62.6307	39.1019	93.1415	45.2485	28.1253	83.2065	28.3276	4.55287	92.6686	9.55979	-10.2952	97.9775	21.8726	-21.6983	84.3873	-3.93959	-11.8657	89.9317	-2.92133	19.4428	116.541	5.87624	-13.1535	105.392	-11.6796	10.3282	112.609	18.4751	32.8177	128.584	-2.9198	-1.89862	122.207	-7.72746	29.0179	131.92	23.6866	37.0106	147.303	-4.38842	7.31114	134.811	-0.0204166	34.8178	138.632	30.2976	40.4563	161.337	45.284	3.477	170.861	64.9063	26.3764	137.187	68.8477	17.1565	
264	2.2	107.22	67.0377	45.7044	88.932	48.507	32.3269	77.7739	30.7768	6.80311	90.8213	12.2807	-3.3753	87.4901	23.6956	-18.6431	72.6757	1.41606	-9.22661	83.3369	0.310724	22.0592	104.597	5.54529	-10.7268	95.28	-9.98514	15.4233	108.499	21.5508	34.163	120.554	-3.18951	0.278671	109.621	-3.66997	30.4991	125.924	27.8493	36.0813	134.842	-3.22971	7.8065	124.562	1.2548	36.4067	131.992	33.7542	38.5101	156.345	41.9246	3.15976	163.559	60.527	23.9273	132.109	68.5635	17.1285	
265	2.20833	107.483	66.3467	42.1053	83.9269	52.4915	30.1149	70.8809	36.3993	7.58313	82.962	13.5096	-6.10311	82.5955	27.5133	-16.8808	65.5701	4.2701	-6.95685	75.1151	7.48646	26.6748	92.9909	6.04894	-8.57635	84.9188	-4.81471	17.5664	103.108	22.1338	35.2549	107.997	-1.2412	3.57233	103.503	-1.04189	35.6676	116.056	26.6732	39.4471	125.141	-7.26999	11.4853	116.563	0.344863	36.6622	129.852	32.1057	41.4299	147.141	36.9582	0.192221	162.647	59.8214	25.1635	128.546	69.1997	15.6156	
